<?xml version="1.0" encoding="UTF-8" standalone="no"?>
<!-- Created with Inkscape (http://www.inkscape.org/) -->

<svg
   width="210mm"
   height="297mm"
   viewBox="0 0 210 297"
   version="1.1"
   id="svg850"
   sodipodi:docname="Kassi.svg"
   inkscape:version="1.2.1 (9c6d41e410, 2022-07-14)"
   xmlns:inkscape="http://www.inkscape.org/namespaces/inkscape"
   xmlns:sodipodi="http://sodipodi.sourceforge.net/DTD/sodipodi-0.dtd"
   xmlns:xlink="http://www.w3.org/1999/xlink"
   xmlns="http://www.w3.org/2000/svg"
   xmlns:svg="http://www.w3.org/2000/svg">
  <sodipodi:namedview
     id="namedview852"
     pagecolor="#ffffff"
     bordercolor="#000000"
     borderopacity="0.25"
     inkscape:showpageshadow="2"
     inkscape:pageopacity="0.0"
     inkscape:pagecheckerboard="0"
     inkscape:deskcolor="#d1d1d1"
     inkscape:document-units="mm"
     showgrid="false"
     inkscape:zoom="0.7502797"
     inkscape:cx="597.11065"
     inkscape:cy="538.46585"
     inkscape:window-width="1920"
     inkscape:window-height="986"
     inkscape:window-x="-11"
     inkscape:window-y="-11"
     inkscape:window-maximized="1"
     inkscape:current-layer="layer1" />
  <defs
     id="defs847">
    <linearGradient
       inkscape:collect="always"
       xlink:href="#linearGradient3247"
       id="linearGradient3249"
       x1="27.51396"
       y1="127.3934"
       x2="105.34456"
       y2="127.3934"
       gradientUnits="userSpaceOnUse" />
    <linearGradient
       inkscape:collect="always"
       id="linearGradient3247">
      <stop
         style="stop-color:#00ff00;stop-opacity:1;"
         offset="0.32721713"
         id="stop3243" />
      <stop
         style="stop-color:#000000;stop-opacity:1;"
         offset="1"
         id="stop3245" />
    </linearGradient>
    <linearGradient
       inkscape:collect="always"
       xlink:href="#linearGradient3247"
       id="linearGradient6727"
       gradientUnits="userSpaceOnUse"
       x1="27.51396"
       y1="127.3934"
       x2="105.34456"
       y2="127.3934" />
    <linearGradient
       inkscape:collect="always"
       xlink:href="#linearGradient3247"
       id="linearGradient6729"
       gradientUnits="userSpaceOnUse"
       x1="27.51396"
       y1="127.3934"
       x2="105.34456"
       y2="127.3934" />
    <linearGradient
       inkscape:collect="always"
       xlink:href="#linearGradient3247"
       id="linearGradient6731"
       gradientUnits="userSpaceOnUse"
       x1="27.51396"
       y1="127.3934"
       x2="105.34456"
       y2="127.3934" />
    <linearGradient
       inkscape:collect="always"
       xlink:href="#linearGradient3247"
       id="linearGradient6733"
       gradientUnits="userSpaceOnUse"
       x1="27.51396"
       y1="127.3934"
       x2="105.34456"
       y2="127.3934" />
    <linearGradient
       inkscape:collect="always"
       xlink:href="#linearGradient3247"
       id="linearGradient6735"
       gradientUnits="userSpaceOnUse"
       x1="27.51396"
       y1="127.3934"
       x2="105.34456"
       y2="127.3934" />
    <linearGradient
       inkscape:collect="always"
       xlink:href="#linearGradient3247"
       id="linearGradient6737"
       gradientUnits="userSpaceOnUse"
       x1="27.51396"
       y1="127.3934"
       x2="105.34456"
       y2="127.3934" />
    <linearGradient
       inkscape:collect="always"
       xlink:href="#linearGradient3247"
       id="linearGradient6739"
       gradientUnits="userSpaceOnUse"
       x1="27.51396"
       y1="127.3934"
       x2="105.34456"
       y2="127.3934" />
    <linearGradient
       inkscape:collect="always"
       xlink:href="#linearGradient3247"
       id="linearGradient6741"
       gradientUnits="userSpaceOnUse"
       x1="27.51396"
       y1="127.3934"
       x2="105.34456"
       y2="127.3934" />
    <linearGradient
       inkscape:collect="always"
       xlink:href="#linearGradient3247"
       id="linearGradient6743"
       gradientUnits="userSpaceOnUse"
       x1="27.51396"
       y1="127.3934"
       x2="105.34456"
       y2="127.3934" />
    <linearGradient
       inkscape:collect="always"
       xlink:href="#linearGradient3247"
       id="linearGradient6745"
       gradientUnits="userSpaceOnUse"
       x1="27.51396"
       y1="127.3934"
       x2="105.34456"
       y2="127.3934" />
    <linearGradient
       inkscape:collect="always"
       xlink:href="#linearGradient3247"
       id="linearGradient6747"
       gradientUnits="userSpaceOnUse"
       x1="27.51396"
       y1="127.3934"
       x2="105.34456"
       y2="127.3934" />
    <linearGradient
       inkscape:collect="always"
       xlink:href="#linearGradient3247"
       id="linearGradient6749"
       gradientUnits="userSpaceOnUse"
       x1="27.51396"
       y1="127.3934"
       x2="105.34456"
       y2="127.3934" />
    <linearGradient
       inkscape:collect="always"
       xlink:href="#linearGradient3247"
       id="linearGradient6751"
       gradientUnits="userSpaceOnUse"
       x1="27.51396"
       y1="127.3934"
       x2="105.34456"
       y2="127.3934" />
    <linearGradient
       inkscape:collect="always"
       xlink:href="#linearGradient3247"
       id="linearGradient6753"
       gradientUnits="userSpaceOnUse"
       x1="27.51396"
       y1="127.3934"
       x2="105.34456"
       y2="127.3934" />
    <linearGradient
       inkscape:collect="always"
       xlink:href="#linearGradient3247"
       id="linearGradient6755"
       gradientUnits="userSpaceOnUse"
       x1="27.51396"
       y1="127.3934"
       x2="105.34456"
       y2="127.3934" />
    <linearGradient
       inkscape:collect="always"
       xlink:href="#linearGradient3247"
       id="linearGradient6757"
       gradientUnits="userSpaceOnUse"
       x1="27.51396"
       y1="127.3934"
       x2="105.34456"
       y2="127.3934" />
    <linearGradient
       inkscape:collect="always"
       xlink:href="#linearGradient3247"
       id="linearGradient6759"
       gradientUnits="userSpaceOnUse"
       x1="27.51396"
       y1="127.3934"
       x2="105.34456"
       y2="127.3934" />
    <linearGradient
       inkscape:collect="always"
       xlink:href="#linearGradient3247"
       id="linearGradient6761"
       gradientUnits="userSpaceOnUse"
       x1="27.51396"
       y1="127.3934"
       x2="105.34456"
       y2="127.3934" />
    <linearGradient
       inkscape:collect="always"
       xlink:href="#linearGradient3247"
       id="linearGradient6763"
       gradientUnits="userSpaceOnUse"
       x1="27.51396"
       y1="127.3934"
       x2="105.34456"
       y2="127.3934" />
    <linearGradient
       inkscape:collect="always"
       xlink:href="#linearGradient3247"
       id="linearGradient6765"
       gradientUnits="userSpaceOnUse"
       x1="27.51396"
       y1="127.3934"
       x2="105.34456"
       y2="127.3934" />
    <linearGradient
       inkscape:collect="always"
       xlink:href="#linearGradient3247"
       id="linearGradient6767"
       gradientUnits="userSpaceOnUse"
       x1="27.51396"
       y1="127.3934"
       x2="105.34456"
       y2="127.3934" />
    <linearGradient
       inkscape:collect="always"
       xlink:href="#linearGradient3247"
       id="linearGradient6769"
       gradientUnits="userSpaceOnUse"
       x1="27.51396"
       y1="127.3934"
       x2="105.34456"
       y2="127.3934" />
    <linearGradient
       inkscape:collect="always"
       xlink:href="#linearGradient3247"
       id="linearGradient6771"
       gradientUnits="userSpaceOnUse"
       x1="27.51396"
       y1="127.3934"
       x2="105.34456"
       y2="127.3934" />
    <linearGradient
       inkscape:collect="always"
       xlink:href="#linearGradient3247"
       id="linearGradient6773"
       gradientUnits="userSpaceOnUse"
       x1="27.51396"
       y1="127.3934"
       x2="105.34456"
       y2="127.3934" />
    <linearGradient
       inkscape:collect="always"
       xlink:href="#linearGradient3247"
       id="linearGradient6775"
       gradientUnits="userSpaceOnUse"
       x1="27.51396"
       y1="127.3934"
       x2="105.34456"
       y2="127.3934" />
    <linearGradient
       inkscape:collect="always"
       xlink:href="#linearGradient3247"
       id="linearGradient6777"
       gradientUnits="userSpaceOnUse"
       x1="27.51396"
       y1="127.3934"
       x2="105.34456"
       y2="127.3934" />
    <linearGradient
       inkscape:collect="always"
       xlink:href="#linearGradient3247"
       id="linearGradient6779"
       gradientUnits="userSpaceOnUse"
       x1="27.51396"
       y1="127.3934"
       x2="105.34456"
       y2="127.3934" />
    <linearGradient
       inkscape:collect="always"
       xlink:href="#linearGradient3247"
       id="linearGradient6781"
       gradientUnits="userSpaceOnUse"
       x1="27.51396"
       y1="127.3934"
       x2="105.34456"
       y2="127.3934" />
    <linearGradient
       inkscape:collect="always"
       xlink:href="#linearGradient3247"
       id="linearGradient6783"
       gradientUnits="userSpaceOnUse"
       x1="27.51396"
       y1="127.3934"
       x2="105.34456"
       y2="127.3934" />
    <linearGradient
       inkscape:collect="always"
       xlink:href="#linearGradient3247"
       id="linearGradient6785"
       gradientUnits="userSpaceOnUse"
       x1="27.51396"
       y1="127.3934"
       x2="105.34456"
       y2="127.3934" />
    <linearGradient
       inkscape:collect="always"
       xlink:href="#linearGradient3247"
       id="linearGradient6787"
       gradientUnits="userSpaceOnUse"
       x1="27.51396"
       y1="127.3934"
       x2="105.34456"
       y2="127.3934" />
    <linearGradient
       inkscape:collect="always"
       xlink:href="#linearGradient3247"
       id="linearGradient6789"
       gradientUnits="userSpaceOnUse"
       x1="27.51396"
       y1="127.3934"
       x2="105.34456"
       y2="127.3934" />
    <linearGradient
       inkscape:collect="always"
       xlink:href="#linearGradient3247"
       id="linearGradient6791"
       gradientUnits="userSpaceOnUse"
       x1="27.51396"
       y1="127.3934"
       x2="105.34456"
       y2="127.3934" />
    <linearGradient
       inkscape:collect="always"
       xlink:href="#linearGradient3247"
       id="linearGradient6793"
       gradientUnits="userSpaceOnUse"
       x1="27.51396"
       y1="127.3934"
       x2="105.34456"
       y2="127.3934" />
    <linearGradient
       inkscape:collect="always"
       xlink:href="#linearGradient3247"
       id="linearGradient6795"
       gradientUnits="userSpaceOnUse"
       x1="27.51396"
       y1="127.3934"
       x2="105.34456"
       y2="127.3934" />
    <linearGradient
       inkscape:collect="always"
       xlink:href="#linearGradient3247"
       id="linearGradient6797"
       gradientUnits="userSpaceOnUse"
       x1="27.51396"
       y1="127.3934"
       x2="105.34456"
       y2="127.3934" />
    <linearGradient
       inkscape:collect="always"
       xlink:href="#linearGradient3247"
       id="linearGradient6799"
       gradientUnits="userSpaceOnUse"
       x1="27.51396"
       y1="127.3934"
       x2="105.34456"
       y2="127.3934" />
    <linearGradient
       inkscape:collect="always"
       xlink:href="#linearGradient3247"
       id="linearGradient6801"
       gradientUnits="userSpaceOnUse"
       x1="27.51396"
       y1="127.3934"
       x2="105.34456"
       y2="127.3934" />
    <linearGradient
       inkscape:collect="always"
       xlink:href="#linearGradient3247"
       id="linearGradient6803"
       gradientUnits="userSpaceOnUse"
       x1="27.51396"
       y1="127.3934"
       x2="105.34456"
       y2="127.3934" />
    <linearGradient
       inkscape:collect="always"
       xlink:href="#linearGradient3247"
       id="linearGradient6805"
       gradientUnits="userSpaceOnUse"
       x1="27.51396"
       y1="127.3934"
       x2="105.34456"
       y2="127.3934" />
    <linearGradient
       inkscape:collect="always"
       xlink:href="#linearGradient3247"
       id="linearGradient6807"
       gradientUnits="userSpaceOnUse"
       x1="27.51396"
       y1="127.3934"
       x2="105.34456"
       y2="127.3934" />
    <linearGradient
       inkscape:collect="always"
       xlink:href="#linearGradient3247"
       id="linearGradient6809"
       gradientUnits="userSpaceOnUse"
       x1="27.51396"
       y1="127.3934"
       x2="105.34456"
       y2="127.3934" />
    <linearGradient
       inkscape:collect="always"
       xlink:href="#linearGradient3247"
       id="linearGradient6811"
       gradientUnits="userSpaceOnUse"
       x1="27.51396"
       y1="127.3934"
       x2="105.34456"
       y2="127.3934" />
    <linearGradient
       inkscape:collect="always"
       xlink:href="#linearGradient3247"
       id="linearGradient6813"
       gradientUnits="userSpaceOnUse"
       x1="27.51396"
       y1="127.3934"
       x2="105.34456"
       y2="127.3934" />
    <linearGradient
       inkscape:collect="always"
       xlink:href="#linearGradient3247"
       id="linearGradient6815"
       gradientUnits="userSpaceOnUse"
       x1="27.51396"
       y1="127.3934"
       x2="105.34456"
       y2="127.3934" />
    <linearGradient
       inkscape:collect="always"
       xlink:href="#linearGradient3247"
       id="linearGradient6817"
       gradientUnits="userSpaceOnUse"
       x1="27.51396"
       y1="127.3934"
       x2="105.34456"
       y2="127.3934" />
    <linearGradient
       inkscape:collect="always"
       xlink:href="#linearGradient3247"
       id="linearGradient6819"
       gradientUnits="userSpaceOnUse"
       x1="27.51396"
       y1="127.3934"
       x2="105.34456"
       y2="127.3934" />
    <linearGradient
       inkscape:collect="always"
       xlink:href="#linearGradient3247"
       id="linearGradient6821"
       gradientUnits="userSpaceOnUse"
       x1="27.51396"
       y1="127.3934"
       x2="105.34456"
       y2="127.3934" />
    <linearGradient
       inkscape:collect="always"
       xlink:href="#linearGradient3247"
       id="linearGradient6823"
       gradientUnits="userSpaceOnUse"
       x1="27.51396"
       y1="127.3934"
       x2="105.34456"
       y2="127.3934" />
    <linearGradient
       inkscape:collect="always"
       xlink:href="#linearGradient3247"
       id="linearGradient6825"
       gradientUnits="userSpaceOnUse"
       x1="27.51396"
       y1="127.3934"
       x2="105.34456"
       y2="127.3934" />
    <linearGradient
       inkscape:collect="always"
       xlink:href="#linearGradient3247"
       id="linearGradient6827"
       gradientUnits="userSpaceOnUse"
       x1="27.51396"
       y1="127.3934"
       x2="105.34456"
       y2="127.3934" />
    <linearGradient
       inkscape:collect="always"
       xlink:href="#linearGradient3247"
       id="linearGradient6829"
       gradientUnits="userSpaceOnUse"
       x1="27.51396"
       y1="127.3934"
       x2="105.34456"
       y2="127.3934" />
    <linearGradient
       inkscape:collect="always"
       xlink:href="#linearGradient3247"
       id="linearGradient6831"
       gradientUnits="userSpaceOnUse"
       x1="27.51396"
       y1="127.3934"
       x2="105.34456"
       y2="127.3934" />
    <linearGradient
       inkscape:collect="always"
       xlink:href="#linearGradient3247"
       id="linearGradient6833"
       gradientUnits="userSpaceOnUse"
       x1="27.51396"
       y1="127.3934"
       x2="105.34456"
       y2="127.3934" />
  </defs>
  <g
     inkscape:label="Layer 1"
     inkscape:groupmode="layer"
     id="layer1">
    <g
       id="panel7066">
      <path
         style="fill:none;stroke:#000000;stroke-width:1"
         d="M 68.4 188.9 L 85.925 188.9 L 85.925 185.8 L 101.425 185.8 L 101.425 188.9 L 118.85 188.9 L 118.85 185.8 L 134.35 185.8 L 134.35 188.9 L 151.775 188.9 L 151.775 185.8 L 167.275 185.8 L 167.275 188.9 L 184.8 188.9"
         id="path2473" />
      <path
         style="fill:none;stroke:#000000;stroke-width:1"
         d="M 184.8 188.9 L 184.8 211.45 L 181.7 211.45 L 181.7 226.55 L 184.8 226.55 L 184.8 249.1"
         id="path2475" />
      <path
         style="fill:none;stroke:#000000;stroke-width:1"
         d="M 184.8 249.1 L 167.275 249.1 L 167.275 252.2 L 151.775 252.2 L 151.775 249.1 L 134.35 249.1 L 134.35 252.2 L 118.85 252.2 L 118.85 249.1 L 101.425 249.1 L 101.425 252.2 L 85.925 252.2 L 85.925 249.1 L 68.4 249.1"
         id="path2477" />
      <path
         style="fill:none;stroke:#000000;stroke-width:1"
         d="M 68.4 249.1 L 68.4 226.55 L 71.5 226.55 L 71.5 211.45 L 68.4 211.45 L 68.4 188.9"
         id="path2479" />
    </g>
    <g
       id="panel2120"
       transform="translate(-4.1459391,1.1307107)">
      <path
         style="fill:none;stroke:#000000;stroke-width:1"
         d="m 4.1,71.5 h 22.35 v -3.1 h 15.5 v 3.1 H 64.3"
         id="path2482" />
      <path
         style="fill:none;stroke:#000000;stroke-width:1"
         d="m 64.3,71.5 v 14.425 h 3.1 v 15.5 h -3.1 v 17.425 h 3.1 v 15.5 h -3.1 v 17.425 h 3.1 v 15.5 H 64.3 V 181.7"
         id="path2484" />
      <path
         style="fill:none;stroke:#000000;stroke-width:1"
         d="M 64.3,181.7 H 41.95 v 3.1 h -15.5 v -3.1 H 4.1"
         id="path2486" />
      <path
         style="fill:none;stroke:#000000;stroke-width:1"
         d="M 4.1,181.7 V 167.275 H 1 v -15.5 H 4.1 V 134.35 H 1 v -15.5 H 4.1 V 101.425 H 1 v -15.5 H 4.1 V 71.5"
         id="path2488" />
    </g>
    <g
       id="panel6347">
      <path
         style="fill:none;stroke:#000000;stroke-width:1"
         d="M 68.4 68.4 L 86.125 68.4 L 86.125 71.5 L 101.225 71.5 L 101.225 68.4 L 119.05 68.4 L 119.05 71.5 L 134.15 71.5 L 134.15 68.4 L 151.975 68.4 L 151.975 71.5 L 167.075 71.5 L 167.075 68.4 L 184.8 68.4"
         id="path2491" />
      <path
         style="fill:none;stroke:#000000;stroke-width:1"
         d="M 184.8 68.4 L 184.8 86.125 L 181.7 86.125 L 181.7 101.225 L 184.8 101.225 L 184.8 119.05 L 181.7 119.05 L 181.7 134.15 L 184.8 134.15 L 184.8 151.975 L 181.7 151.975 L 181.7 167.075 L 184.8 167.075 L 184.8 184.8"
         id="path2493" />
      <path
         style="fill:none;stroke:#000000;stroke-width:1"
         d="M 184.8 184.8 L 167.075 184.8 L 167.075 181.7 L 151.975 181.7 L 151.975 184.8 L 134.15 184.8 L 134.15 181.7 L 119.05 181.7 L 119.05 184.8 L 101.225 184.8 L 101.225 181.7 L 86.125 181.7 L 86.125 184.8 L 68.4 184.8"
         id="path2495" />
      <path
         style="fill:none;stroke:#000000;stroke-width:1"
         d="M 68.4 184.8 L 68.4 167.075 L 71.5 167.075 L 71.5 151.975 L 68.4 151.975 L 68.4 134.15 L 71.5 134.15 L 71.5 119.05 L 68.4 119.05 L 68.4 101.225 L 71.5 101.225 L 71.5 86.125 L 68.4 86.125 L 68.4 68.4"
         id="path2497" />
    </g>
    <g
       id="panel3407">
      <path
         style="fill:none;stroke:#000000;stroke-width:1"
         d="M 188.9 71.5 L 211.25 71.5 L 211.25 68.4 L 226.75 68.4 L 226.75 71.5 L 249.1 71.5"
         id="path2500" />
      <path
         style="fill:none;stroke:#000000;stroke-width:1"
         d="M 249.1 71.5 L 249.1 85.925 L 252.2 85.925 L 252.2 101.425 L 249.1 101.425 L 249.1 118.85 L 252.2 118.85 L 252.2 134.35 L 249.1 134.35 L 249.1 151.775 L 252.2 151.775 L 252.2 167.275 L 249.1 167.275 L 249.1 181.7"
         id="path2502" />
      <path
         style="fill:none;stroke:#000000;stroke-width:1"
         d="M 249.1 181.7 L 226.75 181.7 L 226.75 184.8 L 211.25 184.8 L 211.25 181.7 L 188.9 181.7"
         id="path2504" />
      <path
         style="fill:none;stroke:#000000;stroke-width:1"
         d="M 188.9 181.7 L 188.9 167.275 L 185.8 167.275 L 185.8 151.775 L 188.9 151.775 L 188.9 134.35 L 185.8 134.35 L 185.8 118.85 L 188.9 118.85 L 188.9 101.425 L 185.8 101.425 L 185.8 85.925 L 188.9 85.925 L 188.9 71.5"
         id="path2506" />
    </g>
    <g
       id="panel7774">
      <path
         style="fill:none;stroke:#000000;stroke-width:1"
         d="M 253.2 68.4 L 270.925 68.4 L 270.925 71.5 L 286.025 71.5 L 286.025 68.4 L 303.85 68.4 L 303.85 71.5 L 318.95 71.5 L 318.95 68.4 L 336.775 68.4 L 336.775 71.5 L 351.875 71.5 L 351.875 68.4 L 369.6 68.4"
         id="path2509" />
      <path
         style="fill:none;stroke:#000000;stroke-width:1"
         d="m 369.6,68.4 v 17.725 h -3.1 v 15.1 l 7.02457,0.48894 c 4.25927,6.78397 1.88487,12.09378 0,17.51238 L 366.5,119.05 v 15.1 h 6.80417 c 4.53884,8.81084 1.77981,12.94397 0,17.825 H 366.5 v 15.1 h 3.1 V 184.8"
         id="path2511"
         sodipodi:nodetypes="cccccccccccccc" />
      <path
         style="fill:none;stroke:#000000;stroke-width:1"
         d="M 369.6 184.8 L 351.875 184.8 L 351.875 181.7 L 336.775 181.7 L 336.775 184.8 L 318.95 184.8 L 318.95 181.7 L 303.85 181.7 L 303.85 184.8 L 286.025 184.8 L 286.025 181.7 L 270.925 181.7 L 270.925 184.8 L 253.2 184.8"
         id="path2513" />
      <path
         style="fill:none;stroke:#000000;stroke-width:1"
         d="M 253.2 184.8 L 253.2 167.075 L 256.3 167.075 L 256.3 151.975 L 253.2 151.975 L 253.2 134.15 L 256.3 134.15 L 256.3 119.05 L 253.2 119.05 L 253.2 101.225 L 256.3 101.225 L 256.3 86.125 L 253.2 86.125 L 253.2 68.4"
         id="path2515" />
    </g>
    <g
       id="panel3870">
      <path
         style="fill:none;stroke:#000000;stroke-width:1"
         d="M 68.4 4.1 L 85.925 4.1 L 85.925 1 L 101.425 1 L 101.425 4.1 L 118.85 4.1 L 118.85 1 L 134.35 1 L 134.35 4.1 L 151.775 4.1 L 151.775 1 L 167.275 1 L 167.275 4.1 L 184.8 4.1"
         id="path2518" />
      <path
         style="fill:none;stroke:#000000;stroke-width:1"
         d="M 184.8 4.1 L 184.8 26.65 L 181.7 26.65 L 181.7 41.75 L 184.8 41.75 L 184.8 64.3"
         id="path2520" />
      <path
         style="fill:none;stroke:#000000;stroke-width:1"
         d="M 184.8 64.3 L 167.275 64.3 L 167.275 67.4 L 151.775 67.4 L 151.775 64.3 L 134.35 64.3 L 134.35 67.4 L 118.85 67.4 L 118.85 64.3 L 101.425 64.3 L 101.425 67.4 L 85.925 67.4 L 85.925 64.3 L 68.4 64.3"
         id="path2522" />
      <path
         style="fill:none;stroke:#000000;stroke-width:1"
         d="M 68.4 64.3 L 68.4 41.75 L 71.5 41.75 L 71.5 26.65 L 68.4 26.65 L 68.4 4.1"
         id="path2524" />
    </g>
    <circle
       style="fill:none;stroke:#000000;stroke-width:0.320826"
       id="path2667"
       cx="289.95065"
       cy="101.71394"
       r="12.339587" />
    <circle
       style="fill:none;stroke:#000000;stroke-width:0.320826"
       id="circle3223"
       cx="332.84937"
       cy="101.71394"
       r="12.339587" />
    <circle
       style="fill:none;stroke:#000000;stroke-width:0.320826"
       id="circle3225"
       cx="289.95065"
       cy="151.48605"
       r="12.339587" />
    <circle
       style="fill:none;stroke:#000000;stroke-width:0.320826"
       id="circle3227"
       cx="332.84937"
       cy="151.48605"
       r="12.339587" />
    <rect
       style="fill:none;stroke:#000000;stroke-width:0.264583"
       id="rect3281"
       width="20"
       height="13"
       x="86.014786"
       y="43.605381"
       ry="4.4556117" />
    <ellipse
       style="fill:none;stroke:#000000;stroke-width:0.128195"
       id="path3335"
       cx="128.3363"
       cy="44.481602"
       rx="1.6722037"
       ry="1.4859896" />
    <ellipse
       style="fill:none;stroke:#000000;stroke-width:0.128195"
       id="ellipse3337"
       cx="133.29518"
       cy="44.481602"
       rx="1.6722037"
       ry="1.4859896" />
    <ellipse
       style="fill:none;stroke:#000000;stroke-width:0.128195"
       id="ellipse3339"
       cx="128.3363"
       cy="48.555294"
       rx="1.6722037"
       ry="1.4859896" />
    <ellipse
       style="fill:none;stroke:#000000;stroke-width:0.128195"
       id="ellipse3341"
       cx="133.29518"
       cy="48.555294"
       rx="1.6722037"
       ry="1.4859896" />
    <ellipse
       style="fill:none;stroke:#000000;stroke-width:0.128195"
       id="ellipse3343"
       cx="138.71466"
       cy="44.481602"
       rx="1.6722037"
       ry="1.4859896" />
    <ellipse
       style="fill:none;stroke:#000000;stroke-width:0.128195"
       id="ellipse3345"
       cx="143.67354"
       cy="44.481602"
       rx="1.6722037"
       ry="1.4859896" />
    <ellipse
       style="fill:none;stroke:#000000;stroke-width:0.128195"
       id="ellipse3347"
       cx="138.71466"
       cy="48.555294"
       rx="1.6722037"
       ry="1.4859896" />
    <ellipse
       style="fill:none;stroke:#000000;stroke-width:0.128195"
       id="ellipse3349"
       cx="143.67354"
       cy="48.555294"
       rx="1.6722037"
       ry="1.4859896" />
    <ellipse
       style="fill:none;stroke:#000000;stroke-width:0.128195"
       id="ellipse3351"
       cx="128.3363"
       cy="52.116634"
       rx="1.6722037"
       ry="1.4859896" />
    <ellipse
       style="fill:none;stroke:#000000;stroke-width:0.128195"
       id="ellipse3353"
       cx="133.29518"
       cy="52.116634"
       rx="1.6722037"
       ry="1.4859896" />
    <ellipse
       style="fill:none;stroke:#000000;stroke-width:0.128195"
       id="ellipse3355"
       cx="128.3363"
       cy="56.190327"
       rx="1.6722037"
       ry="1.4859896" />
    <ellipse
       style="fill:none;stroke:#000000;stroke-width:0.128195"
       id="ellipse3357"
       cx="133.29518"
       cy="56.190327"
       rx="1.6722037"
       ry="1.4859896" />
    <ellipse
       style="fill:none;stroke:#000000;stroke-width:0.128195"
       id="ellipse3359"
       cx="138.71466"
       cy="52.116634"
       rx="1.6722037"
       ry="1.4859896" />
    <ellipse
       style="fill:none;stroke:#000000;stroke-width:0.128195"
       id="ellipse3361"
       cx="143.67354"
       cy="52.116634"
       rx="1.6722037"
       ry="1.4859896" />
    <ellipse
       style="fill:none;stroke:#000000;stroke-width:0.128195"
       id="ellipse3363"
       cx="138.71466"
       cy="56.190327"
       rx="1.6722037"
       ry="1.4859896" />
    <ellipse
       style="fill:none;stroke:#000000;stroke-width:0.128195"
       id="ellipse3365"
       cx="143.67354"
       cy="56.190327"
       rx="1.6722037"
       ry="1.4859896" />
    <ellipse
       style="fill:none;stroke:#000000;stroke-width:0.128195"
       id="ellipse3367"
       cx="148.92563"
       cy="44.481602"
       rx="1.6722037"
       ry="1.4859896" />
    <ellipse
       style="fill:none;stroke:#000000;stroke-width:0.128195"
       id="ellipse3369"
       cx="153.88451"
       cy="44.481602"
       rx="1.6722037"
       ry="1.4859896" />
    <ellipse
       style="fill:none;stroke:#000000;stroke-width:0.128195"
       id="ellipse3371"
       cx="148.92563"
       cy="48.555294"
       rx="1.6722037"
       ry="1.4859896" />
    <ellipse
       style="fill:none;stroke:#000000;stroke-width:0.128195"
       id="ellipse3373"
       cx="153.88451"
       cy="48.555294"
       rx="1.6722037"
       ry="1.4859896" />
    <ellipse
       style="fill:none;stroke:#000000;stroke-width:0.128195"
       id="ellipse3375"
       cx="159.30397"
       cy="44.481602"
       rx="1.6722037"
       ry="1.4859896" />
    <ellipse
       style="fill:none;stroke:#000000;stroke-width:0.128195"
       id="ellipse3377"
       cx="164.26285"
       cy="44.481602"
       rx="1.6722037"
       ry="1.4859896" />
    <ellipse
       style="fill:none;stroke:#000000;stroke-width:0.128195"
       id="ellipse3379"
       cx="159.30397"
       cy="48.555294"
       rx="1.6722037"
       ry="1.4859896" />
    <ellipse
       style="fill:none;stroke:#000000;stroke-width:0.128195"
       id="ellipse3381"
       cx="164.26285"
       cy="48.555294"
       rx="1.6722037"
       ry="1.4859896" />
    <ellipse
       style="fill:none;stroke:#000000;stroke-width:0.128195"
       id="ellipse3383"
       cx="148.92563"
       cy="52.116634"
       rx="1.6722037"
       ry="1.4859896" />
    <ellipse
       style="fill:none;stroke:#000000;stroke-width:0.128195"
       id="ellipse3385"
       cx="153.88451"
       cy="52.116634"
       rx="1.6722037"
       ry="1.4859896" />
    <ellipse
       style="fill:none;stroke:#000000;stroke-width:0.128195"
       id="ellipse3387"
       cx="148.92563"
       cy="56.190327"
       rx="1.6722037"
       ry="1.4859896" />
    <ellipse
       style="fill:none;stroke:#000000;stroke-width:0.128195"
       id="ellipse3389"
       cx="153.88451"
       cy="56.190327"
       rx="1.6722037"
       ry="1.4859896" />
    <ellipse
       style="fill:none;stroke:#000000;stroke-width:0.128195"
       id="ellipse3391"
       cx="159.30397"
       cy="52.116634"
       rx="1.6722037"
       ry="1.4859896" />
    <ellipse
       style="fill:none;stroke:#000000;stroke-width:0.128195"
       id="ellipse3393"
       cx="164.26285"
       cy="52.116634"
       rx="1.6722037"
       ry="1.4859896" />
    <ellipse
       style="fill:none;stroke:#000000;stroke-width:0.128195"
       id="ellipse3395"
       cx="159.30397"
       cy="56.190327"
       rx="1.6722037"
       ry="1.4859896" />
    <ellipse
       style="fill:none;stroke:#000000;stroke-width:0.128195"
       id="ellipse3397"
       cx="164.26285"
       cy="56.190327"
       rx="1.6722037"
       ry="1.4859896" />
    <g
       id="g3312"
       transform="translate(60.17074,-0.71325676)">
      <g
         id="g3157"
         style="fill:url(#linearGradient3249);fill-opacity:1">
        <path
           id="rect2960"
           style="fill:url(#linearGradient6727);fill-opacity:1;stroke-width:0.264999"
           d="m 52.389595,78.772843 h 6.40736 v 40.705587 h -6.40736 z" />
        <path
           style="fill:url(#linearGradient6729);fill-opacity:1;stroke-width:0.264999;stroke-dasharray:none"
           d="M 53.520303,115.33249 27.51396,129.65482"
           id="path3133" />
        <path
           style="fill:url(#linearGradient6731);fill-opacity:1;stroke-width:0.264999;stroke-dasharray:none"
           d="m 55.027917,115.70939 -26.006345,9.79949 3.392132,2.26142 23.744926,-9.04568 z"
           id="path3135" />
        <path
           style="fill:url(#linearGradient6733);fill-opacity:1;stroke-width:0.264999;stroke-dasharray:none"
           d="m 29.398476,125.50888 24.498731,15.82995 1.507615,6.78426 L 27.51396,127.3934 Z"
           id="path3141"
           sodipodi:nodetypes="ccccc" />
        <path
           id="rect3143"
           style="fill:url(#linearGradient6735);fill-opacity:1;stroke-width:0.264999"
           d="m 52.389595,142.09263 h 6.40736 v 31.283 h -6.40736 z" />
        <path
           id="path3600"
           style="fill:url(#linearGradient6737);fill-opacity:1;stroke-width:0.264999"
           d="m 52.389595,78.772843 h 6.40736 v 40.705587 h -6.40736 z" />
        <path
           style="fill:url(#linearGradient6739);fill-opacity:1;stroke-width:0.264999;stroke-dasharray:none"
           d="M 53.520303,115.33249 27.51396,129.65482"
           id="path3602" />
        <path
           style="fill:url(#linearGradient6741);fill-opacity:1;stroke-width:0.264999;stroke-dasharray:none"
           d="m 55.027917,115.70939 -26.006345,9.79949 3.392132,2.26142 23.744926,-9.04568 z"
           id="path3604" />
        <path
           style="fill:url(#linearGradient6743);fill-opacity:1;stroke-width:0.264999;stroke-dasharray:none"
           d="m 29.398476,125.50888 24.498731,15.82995 1.507615,6.78426 L 27.51396,127.3934 Z"
           id="path3606"
           sodipodi:nodetypes="ccccc" />
        <path
           id="rect2960-5"
           style="fill:url(#linearGradient6745);fill-opacity:1;stroke-width:0.264999"
           d="m 80.468917,79.526648 h -6.40737 v 40.705592 h 6.40737 z" />
        <path
           style="fill:url(#linearGradient6747);fill-opacity:1;stroke-width:0.264999;stroke-dasharray:none"
           d="m 79.338207,116.0863 26.006353,14.32233"
           id="path3133-3" />
        <path
           style="fill:url(#linearGradient6749);fill-opacity:1;stroke-width:0.264999;stroke-dasharray:none"
           d="m 77.830597,116.4632 26.006343,9.79949 -3.39213,2.26142 -23.744923,-9.04568 z"
           id="path3135-2" />
        <path
           style="fill:url(#linearGradient6751);fill-opacity:1;stroke-width:0.264999;stroke-dasharray:none"
           d="m 103.46004,126.26269 -24.498733,15.82995 -1.50762,6.78426 27.890873,-20.72969 z"
           id="path3141-3"
           sodipodi:nodetypes="ccccc" />
        <path
           id="rect3143-1"
           style="fill:url(#linearGradient6753);fill-opacity:1;stroke-width:0.264999"
           d="m 80.845827,141.71572 h -6.40735 v 31.28301 h 6.40735 z" />
        <path
           id="path3600-0"
           style="fill:url(#linearGradient6755);fill-opacity:1;stroke-width:0.264999"
           d="m 80.468917,79.526648 h -6.40737 v 40.705592 h 6.40737 z" />
        <path
           style="fill:url(#linearGradient6757);fill-opacity:1;stroke-width:0.264999;stroke-dasharray:none"
           d="m 79.338207,116.0863 26.006353,14.32233"
           id="path3602-6" />
        <path
           style="fill:url(#linearGradient6759);fill-opacity:1;stroke-width:0.264999;stroke-dasharray:none"
           d="m 77.830597,116.4632 26.006343,9.79949 -3.39213,2.26142 -23.744923,-9.04568 z"
           id="path3604-4" />
        <path
           style="fill:url(#linearGradient6761);fill-opacity:1;stroke-width:0.264999;stroke-dasharray:none"
           d="m 103.46004,126.26269 -24.498733,15.82995 -1.50762,6.78426 27.890873,-20.72969 z"
           id="path3606-4"
           sodipodi:nodetypes="ccccc" />
        <path
           id="path4454"
           style="fill:url(#linearGradient6763);fill-opacity:1;stroke-width:0.264999"
           d="m 75.003805,142.09264 a 8.4803295,5.653553 0 0 1 -8.480329,5.65355 8.4803295,5.653553 0 0 1 -8.48033,-5.65355 8.4803295,5.653553 0 0 1 8.48033,-5.65356 8.4803295,5.653553 0 0 1 8.480329,5.65356 z" />
        <path
           id="path4456"
           style="fill:url(#linearGradient6765);fill-opacity:1;stroke-width:0.264999"
           d="m 73.496191,142.46954 a 6.9727154,2.6383247 0 0 1 -6.972715,2.63833 6.9727154,2.6383247 0 0 1 -6.972716,-2.63833 6.9727154,2.6383247 0 0 1 6.972716,-2.63832 6.9727154,2.6383247 0 0 1 6.972715,2.63832 z" />
        <path
           id="rect4510"
           style="fill:url(#linearGradient6767);fill-opacity:1;stroke-width:0.264999"
           d="m 58.420048,142.84645 h 15.453046 v 11.30711 H 58.420048 Z" />
        <path
           id="rect4514"
           style="fill:url(#linearGradient6769);fill-opacity:1;stroke-width:0.264999"
           d="m 57.666245,94.979691 h 16.960659 v 5.653549 H 57.666245 Z" />
        <path
           id="rect273"
           style="fill:url(#linearGradient6771);fill-opacity:1;stroke-width:0.264583"
           d="m 46.359138,167.72208 h 8.668783 v 8.29187 h -8.668783 z" />
        <path
           id="rect275"
           style="fill:url(#linearGradient6773);fill-opacity:1;stroke-width:0.264583"
           d="m 78.019035,168.47589 h 8.291878 v 7.53807 h -8.291878 z" />
        <path
           id="rect1286"
           style="fill:url(#linearGradient6775);stroke-width:0.264583"
           d="m 58.043144,142.84645 h 16.206852 v 10.5533 H 58.043144 Z" />
        <path
           id="rect1288"
           style="fill:url(#linearGradient6777);stroke-width:0.264583"
           d="M 58.043144,151.89214 H 73.49619 v 3.76903 H 58.043144 Z" />
        <path
           id="path1344"
           style="fill:url(#linearGradient6779);stroke-width:0.264583"
           d="m 71.611676,143.0349 a 4.8997464,2.8267765 0 0 1 -4.899747,2.82677 4.8997464,2.8267765 0 0 1 -4.899746,-2.82677 4.8997464,2.8267765 0 0 1 4.899746,-2.82678 4.8997464,2.8267765 0 0 1 4.899747,2.82678 z" />
        <path
           id="path1346"
           style="fill:url(#linearGradient6781);fill-opacity:1;stroke-width:0.264999"
           d="m 52.389595,78.772843 h 6.40736 v 40.705587 h -6.40736 z" />
        <path
           style="fill:url(#linearGradient6783);fill-opacity:1;stroke-width:0.264999;stroke-dasharray:none"
           d="M 53.520303,115.33249 27.51396,129.65482"
           id="path1348" />
        <path
           style="fill:url(#linearGradient6785);fill-opacity:1;stroke-width:0.264999;stroke-dasharray:none"
           d="m 55.027917,115.70939 -26.006345,9.79949 3.392132,2.26142 23.744926,-9.04568 z"
           id="path1350" />
        <path
           style="fill:url(#linearGradient6787);fill-opacity:1;stroke-width:0.264999;stroke-dasharray:none"
           d="m 29.398476,125.50888 24.498731,15.82995 1.507615,6.78426 L 27.51396,127.3934 Z"
           id="path1352"
           sodipodi:nodetypes="ccccc" />
        <path
           id="path1354"
           style="fill:url(#linearGradient6789);fill-opacity:1;stroke-width:0.264999"
           d="m 52.389595,142.09263 h 6.40736 v 31.283 h -6.40736 z" />
        <path
           id="path1356"
           style="fill:url(#linearGradient6791);fill-opacity:1;stroke-width:0.264999"
           d="m 52.389595,78.772843 h 6.40736 v 40.705587 h -6.40736 z" />
        <path
           style="fill:url(#linearGradient6793);fill-opacity:1;stroke-width:0.264999;stroke-dasharray:none"
           d="M 53.520303,115.33249 27.51396,129.65482"
           id="path1358" />
        <path
           style="fill:url(#linearGradient6795);fill-opacity:1;stroke-width:0.264999;stroke-dasharray:none"
           d="m 55.027917,115.70939 -26.006345,9.79949 3.392132,2.26142 23.744926,-9.04568 z"
           id="path1360" />
        <path
           style="fill:url(#linearGradient6797);fill-opacity:1;stroke-width:0.264999;stroke-dasharray:none"
           d="m 29.398476,125.50888 24.498731,15.82995 1.507615,6.78426 L 27.51396,127.3934 Z"
           id="path1362"
           sodipodi:nodetypes="ccccc" />
        <path
           id="path1364"
           style="fill:url(#linearGradient6799);fill-opacity:1;stroke-width:0.264999"
           d="m 80.468917,79.526648 h -6.40737 v 40.705592 h 6.40737 z" />
        <path
           style="fill:url(#linearGradient6801);fill-opacity:1;stroke-width:0.264999;stroke-dasharray:none"
           d="m 79.338207,116.0863 26.006353,14.32233"
           id="path1366" />
        <path
           style="fill:url(#linearGradient6803);fill-opacity:1;stroke-width:0.264999;stroke-dasharray:none"
           d="m 77.830597,116.4632 26.006343,9.79949 -3.39213,2.26142 -23.744923,-9.04568 z"
           id="path1368" />
        <path
           style="fill:url(#linearGradient6805);fill-opacity:1;stroke-width:0.264999;stroke-dasharray:none"
           d="m 103.46004,126.26269 -24.498733,15.82995 -1.50762,6.78426 27.890873,-20.72969 z"
           id="path1370"
           sodipodi:nodetypes="ccccc" />
        <path
           id="path1372"
           style="fill:url(#linearGradient6807);fill-opacity:1;stroke-width:0.264999"
           d="m 80.845827,141.71572 h -6.40735 v 31.28301 h 6.40735 z" />
        <path
           id="path1374"
           style="fill:url(#linearGradient6809);fill-opacity:1;stroke-width:0.264999"
           d="m 80.468917,79.526648 h -6.40737 v 40.705592 h 6.40737 z" />
        <path
           style="fill:url(#linearGradient6811);fill-opacity:1;stroke-width:0.264999;stroke-dasharray:none"
           d="m 79.338207,116.0863 26.006353,14.32233"
           id="path1376" />
        <path
           style="fill:url(#linearGradient6813);fill-opacity:1;stroke-width:0.264999;stroke-dasharray:none"
           d="m 77.830597,116.4632 26.006343,9.79949 -3.39213,2.26142 -23.744923,-9.04568 z"
           id="path1378" />
        <path
           style="fill:url(#linearGradient6815);fill-opacity:1;stroke-width:0.264999;stroke-dasharray:none"
           d="m 103.46004,126.26269 -24.498733,15.82995 -1.50762,6.78426 27.890873,-20.72969 z"
           id="path1380"
           sodipodi:nodetypes="ccccc" />
        <path
           id="path1382"
           style="fill:url(#linearGradient6817);fill-opacity:1;stroke-width:0.264999"
           d="m 75.003805,142.09264 a 8.4803295,5.653553 0 0 1 -8.480329,5.65355 8.4803295,5.653553 0 0 1 -8.48033,-5.65355 8.4803295,5.653553 0 0 1 8.48033,-5.65356 8.4803295,5.653553 0 0 1 8.480329,5.65356 z" />
        <path
           id="path1384"
           style="fill:url(#linearGradient6819);fill-opacity:1;stroke-width:0.264999"
           d="m 73.496191,142.46954 a 6.9727154,2.6383247 0 0 1 -6.972715,2.63833 6.9727154,2.6383247 0 0 1 -6.972716,-2.63833 6.9727154,2.6383247 0 0 1 6.972716,-2.63832 6.9727154,2.6383247 0 0 1 6.972715,2.63832 z" />
        <path
           id="path1386"
           style="fill:url(#linearGradient6821);fill-opacity:1;stroke-width:0.264999"
           d="m 58.420048,142.84645 h 15.453046 v 11.30711 H 58.420048 Z" />
        <path
           id="path1388"
           style="fill:url(#linearGradient6823);fill-opacity:1;stroke-width:0.264999"
           d="m 57.666245,94.979691 h 16.960659 v 5.653549 H 57.666245 Z" />
        <path
           id="path1390"
           style="fill:url(#linearGradient6825);fill-opacity:1;stroke-width:0.264583"
           d="m 46.359138,167.72208 h 8.668783 v 8.29187 h -8.668783 z" />
        <path
           id="path1392"
           style="fill:url(#linearGradient6827);fill-opacity:1;stroke-width:0.264583"
           d="m 78.019035,168.47589 h 8.291878 v 7.53807 h -8.291878 z" />
        <path
           id="rect1394"
           style="fill:url(#linearGradient6829);stroke-width:0.264583"
           d="m 58.043144,142.84645 h 16.206852 v 10.5533 H 58.043144 Z" />
        <path
           id="rect1396"
           style="fill:url(#linearGradient6831);stroke-width:0.264583"
           d="M 58.043144,151.89214 H 73.49619 v 3.76903 H 58.043144 Z" />
        <path
           id="ellipse1398"
           style="fill:url(#linearGradient6833);stroke-width:0.264583"
           d="m 71.611676,143.0349 a 4.8997464,2.8267765 0 0 1 -4.899747,2.82677 4.8997464,2.8267765 0 0 1 -4.899746,-2.82677 4.8997464,2.8267765 0 0 1 4.899746,-2.82678 4.8997464,2.8267765 0 0 1 4.899747,2.82678 z" />
      </g>
      <path
         id="rect3251"
         style="fill:#ffffff;stroke-width:0.264583"
         d="m 58.043144,145.48477 h 16.206852 v 11.68401 H 58.043144 Z" />
      <path
         id="path3253"
         style="fill:#ffffff;stroke-width:0.264583"
         d="m 71.234768,143.7887 a 4.8997464,3.5805838 0 0 1 -4.899746,3.58058 4.8997464,3.5805838 0 0 1 -4.899746,-3.58058 4.8997464,3.5805838 0 0 1 4.899746,-3.58059 4.8997464,3.5805838 0 0 1 4.899746,3.58059 z" />
    </g>
  </g>
</svg>
